<svg width="61" height="61" viewBox="0 0 61 61" fill="none" xmlns="http://www.w3.org/2000/svg">
<g id="4">
<circle id="Ellipse" cx="30.6611" cy="30.1768" r="30" fill="#EFF6F1"/>
<g id="Pintrest">
<path id="Vector" d="M30.4578 20.1768C25.0478 20.1768 20.6611 24.5614 20.6611 29.969C20.6611 33.9777 23.0753 37.4225 26.526 38.9394C26.4998 38.2575 26.5216 37.4356 26.6966 36.6925C26.8846 35.8968 27.9561 31.3548 27.9561 31.3548C27.9561 31.3548 27.6412 30.7297 27.6412 29.8073C27.6412 28.3559 28.4809 27.2718 29.5306 27.2718C30.4228 27.2718 30.8514 27.9406 30.8514 28.7406C30.8514 29.6368 30.2785 30.9745 29.9854 32.216C29.7405 33.2564 30.5059 34.1001 31.5337 34.1001C33.388 34.1001 34.6388 31.7176 34.6388 28.8936C34.6388 26.7472 33.1912 25.1428 30.5627 25.1428C27.5931 25.1428 25.7388 27.3592 25.7388 29.8335C25.7388 30.686 25.9924 31.2892 26.386 31.7526C26.5654 31.9668 26.5916 32.0543 26.526 32.2991C26.4779 32.4783 26.3729 32.9111 26.3248 33.0859C26.2592 33.3351 26.058 33.4225 25.835 33.3307C24.4661 32.7712 23.8275 31.2761 23.8275 29.5887C23.8275 26.8084 26.1761 23.4729 30.8295 23.4729C34.5689 23.4729 37.0311 26.1789 37.0311 29.0816C37.0311 32.9242 34.8925 35.7919 31.7436 35.7919C30.6852 35.7919 29.6924 35.2193 29.3513 34.5723C29.3513 34.5723 28.7827 36.828 28.6603 37.2651C28.4547 38.0214 28.048 38.7733 27.6762 39.3635C28.578 39.6294 29.5132 39.7648 30.4534 39.7657C35.8634 39.7657 40.25 35.381 40.25 29.9734C40.25 24.5658 35.8678 20.1768 30.4578 20.1768Z" fill="#274C5B"/>
</g>
</g>
</svg>
