<svg width="61" height="61" viewBox="0 0 61 61" fill="none" xmlns="http://www.w3.org/2000/svg">
<g id="3">
<circle id="Ellipse" cx="30.6611" cy="30.1768" r="30" fill="#EFF6F1"/>
<g id="Twiter">
<path id="Vector" d="M41.3213 24.1352C40.5463 24.4719 39.7263 24.6938 38.8873 24.7937C39.7691 24.2774 40.4322 23.4571 40.7523 22.4867C39.9186 22.9742 39.008 23.3162 38.0596 23.4982C37.6602 23.0796 37.1799 22.7466 36.6478 22.5194C36.1157 22.2923 35.543 22.1757 34.9644 22.1768C32.6221 22.1768 30.7265 24.0448 30.7265 26.3475C30.7248 26.6678 30.7616 26.9872 30.8358 27.2988C29.1562 27.22 27.5115 26.7916 26.0069 26.0408C24.5024 25.29 23.1711 24.2334 22.0983 22.9386C21.7219 23.5731 21.5229 24.297 21.522 25.0348C21.522 26.481 22.2765 27.7593 23.4158 28.5082C22.7408 28.4922 22.0796 28.3136 21.4884 27.9874V28.0391C21.4884 30.0621 22.9518 31.745 24.8887 32.1281C24.5245 32.2252 24.1492 32.2744 23.7722 32.2744C23.5047 32.2749 23.2379 32.2489 22.9755 32.1969C23.514 33.8541 25.0811 35.0592 26.9375 35.0937C25.4291 36.2562 23.5771 36.8845 21.6726 36.8799C21.3346 36.8794 20.9968 36.8593 20.6611 36.8197C22.5985 38.0568 24.8506 38.7112 27.1493 38.7049C34.9554 38.7049 39.22 32.3476 39.22 26.8339C39.22 26.6531 39.2153 26.4724 39.2066 26.2959C40.0344 25.7071 40.7505 24.9754 41.3213 24.1352Z" fill="#274C5B"/>
</g>
</g>
</svg>
