<svg width="61" height="61" viewBox="0 0 61 61" fill="none" xmlns="http://www.w3.org/2000/svg">
<g id="1">
<circle id="Ellipse" cx="30.6611" cy="30.1768" r="30" fill="#EFF6F1"/>
<g id="Insta">
<path id="Vector" d="M34.3197 22.724C35.3842 22.7271 36.4042 23.1356 37.157 23.8605C37.9097 24.5854 38.334 25.5676 38.3372 26.5928V34.3294C38.334 35.3545 37.9097 36.3368 37.157 37.0616C36.4042 37.7865 35.3842 38.1951 34.3197 38.1982H26.2854C25.2209 38.1951 24.2009 37.7865 23.4481 37.0616C22.6954 36.3368 22.2711 35.3545 22.2679 34.3294V26.5928C22.2711 25.5676 22.6954 24.5854 23.4481 23.8605C24.2009 23.1356 25.2209 22.7271 26.2854 22.724H34.3197ZM34.3197 21.1768H26.2854C23.192 21.1768 20.6611 23.6139 20.6611 26.5928V34.3294C20.6611 37.3083 23.192 39.7454 26.2854 39.7454H34.3197C37.4131 39.7454 39.944 37.3083 39.944 34.3294V26.5928C39.944 23.6139 37.4131 21.1768 34.3197 21.1768Z" fill="#274C5B"/>
<path id="Vector_2" d="M35.5244 26.5935C35.2861 26.5935 35.0531 26.5255 34.8549 26.398C34.6567 26.2704 34.5022 26.0892 34.411 25.8771C34.3198 25.6651 34.2959 25.4317 34.3424 25.2066C34.3889 24.9815 34.5037 24.7747 34.6723 24.6124C34.8408 24.4501 35.0555 24.3395 35.2893 24.2948C35.5231 24.25 35.7654 24.273 35.9856 24.3608C36.2059 24.4486 36.3941 24.5974 36.5265 24.7882C36.6589 24.9791 36.7296 25.2035 36.7296 25.433C36.73 25.5855 36.699 25.7366 36.6386 25.8775C36.5781 26.0185 36.4894 26.1465 36.3774 26.2544C36.2654 26.3622 36.1324 26.4477 35.986 26.5059C35.8397 26.5641 35.6828 26.5939 35.5244 26.5935ZM30.3022 27.367C30.9378 27.367 31.5592 27.5485 32.0877 27.8885C32.6163 28.2286 33.0282 28.712 33.2715 29.2775C33.5147 29.843 33.5784 30.4653 33.4543 31.0657C33.3303 31.666 33.0242 32.2175 32.5748 32.6503C32.1253 33.0831 31.5526 33.3779 30.9292 33.4973C30.3057 33.6167 29.6595 33.5554 29.0722 33.3212C28.485 33.087 27.983 32.6903 27.6299 32.1813C27.2767 31.6724 27.0882 31.074 27.0882 30.4619C27.0891 29.6413 27.428 28.8546 28.0306 28.2744C28.6331 27.6942 29.45 27.3678 30.3022 27.367ZM30.3022 25.8197C29.3487 25.8197 28.4167 26.092 27.6239 26.6021C26.8312 27.1121 26.2133 27.8371 25.8484 28.6854C25.4835 29.5336 25.3881 30.467 25.5741 31.3675C25.7601 32.268 26.2192 33.0952 26.8934 33.7444C27.5676 34.3936 28.4266 34.8357 29.3617 35.0148C30.2968 35.194 31.2661 35.102 32.147 34.7507C33.0278 34.3993 33.7807 33.8043 34.3104 33.0409C34.8401 32.2775 35.1229 31.38 35.1229 30.4619C35.1229 29.2307 34.615 28.0499 33.7109 27.1794C32.8068 26.3088 31.5807 25.8197 30.3022 25.8197Z" fill="#274C5B"/>
</g>
</g>
</svg>
