<svg width="61" height="61" viewBox="0 0 61 61" fill="none" xmlns="http://www.w3.org/2000/svg">
<g id="2">
<circle id="Ellipse" cx="30.6611" cy="30.1768" r="30" fill="#EFF6F1"/>
<g id="Fb">
<path id="Vector" fill-rule="evenodd" clip-rule="evenodd" d="M39.944 30.4611C39.944 25.334 35.6268 21.1768 30.3025 21.1768C24.9782 21.1768 20.6611 25.334 20.6611 30.4611C20.6611 35.095 24.1863 38.9359 28.7961 39.6331V33.1457H26.3474V30.4611H28.7961V28.4156C28.7961 26.0892 30.2358 24.803 32.4379 24.803C33.4928 24.803 34.5964 24.9846 34.5964 24.9846V27.2696H33.3801C32.1831 27.2696 31.8086 27.985 31.8086 28.7203V30.4611H34.4824L34.0554 33.1457H31.809V39.6339C36.4188 38.9372 39.944 35.0962 39.944 30.4611Z" fill="#274C5B"/>
</g>
</g>
</svg>
