<svg width="15" height="14" viewBox="0 0 15 14" fill="none" xmlns="http://www.w3.org/2000/svg">
<path d="M6.40075 13.0003C6.77364 13.0003 7.07592 12.7018 7.07592 12.3337C7.07592 11.9655 6.77364 11.667 6.40075 11.667C6.02787 11.667 5.72559 11.9655 5.72559 12.3337C5.72559 12.7018 6.02787 13.0003 6.40075 13.0003Z" fill="white" stroke="white" stroke-width="1.5" stroke-linecap="round" stroke-linejoin="round"/>
<path d="M11.1283 13.0003C11.5012 13.0003 11.8035 12.7018 11.8035 12.3337C11.8035 11.9655 11.5012 11.667 11.1283 11.667C10.7554 11.667 10.4531 11.9655 10.4531 12.3337C10.4531 12.7018 10.7554 13.0003 11.1283 13.0003Z" fill="white" stroke="white" stroke-width="1.5" stroke-linecap="round" stroke-linejoin="round"/>
<path d="M1 1H3.08916L4.65603 9.76708H13.0127" stroke="white" stroke-width="2" stroke-linecap="round" stroke-linejoin="round"/>
<path d="M4.37626 7.6456L12.799 7.70398C12.8594 7.70402 12.9179 7.68339 12.9646 7.6456C13.0113 7.60782 13.0434 7.55521 13.0552 7.49673L13.9953 2.85533C14.0029 2.81791 14.002 2.77929 13.9926 2.74225C13.9833 2.70522 13.9657 2.67071 13.9412 2.6412C13.9167 2.61169 13.8858 2.58792 13.8509 2.57161C13.8159 2.5553 13.7777 2.54685 13.7391 2.54688L3.52343 2.54688" stroke="white" stroke-width="2" stroke-linecap="round" stroke-linejoin="round"/>
</svg>
