<svg width="23" height="23" viewBox="0 0 23 23" fill="none" xmlns="http://www.w3.org/2000/svg">
<g id="Insta">
<path id="Vector" d="M16.4149 2.58965C17.6477 2.59319 18.829 3.06635 19.7007 3.90578C20.5724 4.74522 21.0638 5.88272 21.0674 7.06985V16.0293C21.0638 17.2164 20.5724 18.3539 19.7007 19.1934C18.829 20.0328 17.6477 20.506 16.4149 20.5095H7.11089C5.87809 20.506 4.69684 20.0328 3.82512 19.1934C2.9534 18.3539 2.46205 17.2164 2.45837 16.0293V7.06985C2.46205 5.88272 2.9534 4.74522 3.82512 3.90578C4.69684 3.06635 5.87809 2.59319 7.11089 2.58965H16.4149ZM16.4149 0.797852H7.11089C3.52853 0.797852 0.597656 3.62018 0.597656 7.06985V16.0293C0.597656 19.479 3.52853 22.3013 7.11089 22.3013H16.4149C19.9973 22.3013 22.9282 19.479 22.9282 16.0293V7.06985C22.9282 3.62018 19.9973 0.797852 16.4149 0.797852Z" fill="#274C5B"/>
<path id="Vector_2" d="M17.811 7.07074C17.5349 7.07074 17.2651 6.99192 17.0356 6.84425C16.8061 6.69657 16.6272 6.48667 16.5216 6.24109C16.4159 5.99551 16.3883 5.72529 16.4421 5.46458C16.496 5.20388 16.6289 4.96441 16.8241 4.77645C17.0193 4.58849 17.268 4.46049 17.5387 4.40864C17.8094 4.35678 18.09 4.38339 18.3451 4.48512C18.6001 4.58684 18.8181 4.7591 18.9714 4.98011C19.1248 5.20113 19.2066 5.46097 19.2066 5.72678C19.207 5.90338 19.1712 6.07831 19.1012 6.24154C19.0312 6.40477 18.9284 6.55308 18.7987 6.67795C18.669 6.80283 18.515 6.90181 18.3455 6.96921C18.176 7.03662 17.9944 7.07112 17.811 7.07074ZM11.7633 7.9664C12.4994 7.9664 13.219 8.1766 13.8311 8.57043C14.4431 8.96425 14.9202 9.524 15.2019 10.1789C15.4836 10.8338 15.5573 11.5544 15.4137 12.2497C15.2701 12.9449 14.9156 13.5835 14.3951 14.0848C13.8746 14.586 13.2114 14.9274 12.4894 15.0657C11.7674 15.204 11.0191 15.133 10.339 14.8617C9.65888 14.5904 9.0776 14.1311 8.66863 13.5417C8.25966 12.9523 8.04138 12.2593 8.04138 11.5505C8.04243 10.6002 8.4349 9.6892 9.13266 9.01727C9.83043 8.34535 10.7765 7.96742 11.7633 7.9664ZM11.7633 6.17461C10.6592 6.17461 9.57981 6.4899 8.66175 7.0806C7.74369 7.67131 7.02815 8.51091 6.60562 9.49322C6.18308 10.4755 6.07253 11.5564 6.28794 12.5992C6.50334 13.6421 7.03504 14.6 7.81578 15.3518C8.59652 16.1036 9.59125 16.6156 10.6742 16.823C11.7571 17.0305 12.8796 16.924 13.8997 16.5171C14.9198 16.1102 15.7916 15.4212 16.4051 14.5371C17.0185 13.6531 17.3459 12.6137 17.3459 11.5505C17.3459 10.1247 16.7577 8.75733 15.7108 7.74916C14.6639 6.74099 13.2439 6.17461 11.7633 6.17461Z" fill="#274C5B"/>
</g>
</svg>
