<svg width="34" height="56" viewBox="0 0 34 56" fill="none" xmlns="http://www.w3.org/2000/svg">
<path d="M1.72949 41.5459H16.6698H31.6102" stroke="#7EB693" stroke-width="2" stroke-miterlimit="10"/>
<path d="M5.10352 47.8389L16.6684 47.8389L28.2333 47.8389" stroke="#7EB693" stroke-width="2" stroke-miterlimit="10"/>
<path d="M16.2402 1.84961L16.2402 8.69899L16.2402 15.5484" stroke="#7EB693" stroke-width="2" stroke-miterlimit="10"/>
<path d="M16.3047 14.8486V40.7115" stroke="#7EB693" stroke-width="2" stroke-miterlimit="10"/>
<path d="M25.7791 4.83594L16.3047 15.6817" stroke="#7EB693" stroke-width="2" stroke-miterlimit="10"/>
<path d="M29.423 9.00977L16.3047 24.0269" stroke="#7EB693" stroke-width="2" stroke-miterlimit="10"/>
<path d="M31.6094 15.6826L16.3047 32.3683" stroke="#7EB693" stroke-width="2" stroke-miterlimit="10"/>
<path d="M32.3382 23.1904L16.3047 41.5447" stroke="#7EB693" stroke-width="2" stroke-miterlimit="10"/>
<path d="M32.3374 31.5352L23.5918 41.5466" stroke="#7EB693" stroke-width="2" stroke-miterlimit="10"/>
<path d="M1 31.5352L9.74557 41.5466" stroke="#7EB693" stroke-width="2" stroke-miterlimit="10"/>
<path d="M7.55957 4.83594L16.3051 15.6817" stroke="#7EB693" stroke-width="2" stroke-miterlimit="10"/>
<path d="M3.91406 9.00977L16.3036 24.0269" stroke="#7EB693" stroke-width="2" stroke-miterlimit="10"/>
<path d="M1.72949 14.8486L16.3054 32.3686" stroke="#7EB693" stroke-width="2" stroke-miterlimit="10"/>
<path d="M1 22.3574L16.3048 40.7117" stroke="#7EB693" stroke-width="2" stroke-miterlimit="10"/>
<path d="M16.6692 54.06C8.01618 54.06 1 45.7896 1 35.5856V19.9744C1 9.77229 8.01618 1.5 16.6692 1.5C25.3237 1.5 32.3383 9.77229 32.3383 19.9744V35.5856C32.3399 45.7896 25.3237 54.06 16.6692 54.06Z" stroke="#7EB693" stroke-width="2" stroke-miterlimit="10"/>
</svg>
