<svg width="35" height="35" viewBox="0 0 35 35" fill="none" xmlns="http://www.w3.org/2000/svg">
<g id="Search Icon">
<circle id="Ellipse 59" cx="17.5" cy="17.5" r="17.5" fill="#7EB693"/>
<path id="Vector" d="M24.1027 22.8076L21.0171 19.8322C21.76 18.8786 22.161 17.7178 22.1597 16.5251C22.1597 13.4786 19.5893 11 16.4299 11C13.2706 11 10.7002 13.4786 10.7002 16.5251C10.7002 19.5716 13.2706 22.0502 16.4299 22.0502C17.6668 22.0515 18.8706 21.6648 19.8595 20.9485L22.9451 23.9238C23.1013 24.0585 23.305 24.1303 23.5144 24.1247C23.7238 24.119 23.923 24.0363 24.0712 23.8934C24.2193 23.7506 24.3051 23.5585 24.311 23.3566C24.3168 23.1546 24.2423 22.9582 24.1027 22.8076ZM12.3373 16.5251C12.3373 15.7446 12.5773 14.9815 13.027 14.3325C13.4767 13.6835 14.1159 13.1777 14.8637 12.879C15.6116 12.5803 16.4345 12.5022 17.2284 12.6544C18.0223 12.8067 18.7515 13.1826 19.3239 13.7345C19.8962 14.2864 20.286 14.9896 20.444 15.7552C20.6019 16.5207 20.5208 17.3142 20.2111 18.0354C19.9013 18.7565 19.3767 19.3728 18.7037 19.8065C18.0307 20.2401 17.2394 20.4716 16.4299 20.4716C15.3449 20.4703 14.3047 20.0542 13.5374 19.3143C12.7702 18.5745 12.3386 17.5714 12.3373 16.5251Z" fill="#FAFAFA"/>
</g>
</svg>
