<svg width="25" height="21" viewBox="0 0 25 21" fill="none" xmlns="http://www.w3.org/2000/svg">
<g id="Twiter">
<path id="Vector" d="M24.1843 3.24744C23.2868 3.6374 22.3373 3.89432 21.3656 4.01007C22.3868 3.41212 23.1547 2.46217 23.5254 1.33838C22.5599 1.90292 21.5054 2.29903 20.4071 2.50974C19.9446 2.02501 19.3883 1.6394 18.7721 1.37634C18.156 1.11328 17.4927 0.978262 16.8227 0.979501C14.1102 0.979501 11.915 3.14277 11.915 5.80947C11.9131 6.1804 11.9556 6.55022 12.0416 6.91104C10.0965 6.81985 8.19186 6.32366 6.44951 5.4542C4.70716 4.58474 3.16549 3.36117 1.92311 1.86175C1.48725 2.59653 1.25675 3.43488 1.25569 4.2892C1.25569 5.96399 2.12947 7.44438 3.44886 8.31168C2.66716 8.29313 1.90147 8.08623 1.21681 7.70856V7.76837C1.21681 10.1111 2.91153 12.06 5.15455 12.5036C4.73276 12.6161 4.2981 12.673 3.86158 12.6731C3.55183 12.6736 3.24279 12.6436 2.93895 12.5834C3.56251 14.5024 5.37736 15.8981 7.52717 15.9379C5.78029 17.2842 3.63559 18.0119 1.43014 18.0065C1.03867 18.0059 0.647562 17.9826 0.258789 17.9367C2.5024 19.3694 5.11041 20.1272 7.77241 20.1199C16.8123 20.1199 21.7509 12.7578 21.7509 6.37271C21.7509 6.16337 21.7454 5.95402 21.7355 5.74965C22.694 5.06781 23.5233 4.22047 24.1843 3.24744Z" fill="#274C5B"/>
</g>
</svg>
